<svg xmlns="http://www.w3.org/2000/svg" viewBox="0 0 96 96">
  <defs>
    <linearGradient id="outer-gradient" x1="18" y1="12" x2="78" y2="84" gradientUnits="userSpaceOnUse">
      <stop offset="0" stop-color="#1f2a4a" />
      <stop offset="1" stop-color="#060a18" />
    </linearGradient>
    <radialGradient id="outer-glow" cx="48" cy="48" r="44" gradientUnits="userSpaceOnUse">
      <stop offset="0" stop-color="#1f2550" stop-opacity="0.85" />
      <stop offset="1" stop-color="#050815" stop-opacity="0.35" />
    </radialGradient>
    <linearGradient id="favicon-gradient-a" x1="10" y1="12" x2="62" y2="62" gradientUnits="userSpaceOnUse">
      <stop offset="0" stop-color="#38f8b7" />
      <stop offset="1" stop-color="#09a8ff" />
    </linearGradient>
    <radialGradient id="favicon-gradient-b" cx="0" cy="0" r="1" gradientUnits="userSpaceOnUse" gradientTransform="translate(36 36) scale(36)">
      <stop offset="0" stop-color="#1f1d52" stop-opacity="0.9" />
      <stop offset="1" stop-color="#030615" stop-opacity="0.4" />
    </radialGradient>
    <linearGradient id="favicon-gradient-c" x1="18" y1="16" x2="52" y2="50" gradientUnits="userSpaceOnUse">
      <stop offset="0" stop-color="#98f5ff" stop-opacity="0.92" />
      <stop offset="1" stop-color="#ffffff" stop-opacity="0.65" />
    </linearGradient>
  </defs>
  <rect x="8" y="8" width="80" height="80" rx="26" fill="url(#outer-gradient)" />
  <circle cx="48" cy="48" r="36" fill="url(#outer-glow)" opacity="0.85" />
  <g transform="translate(12 12)">
    <circle cx="36" cy="36" r="32" fill="url(#favicon-gradient-b)" opacity="0.9" />
    <path
      d="M20 22c0-1.66 1.34-3 3-3h26c1.66 0 3 1.34 3 3v7.24c0 1.04-.54 2.02-1.42 2.57l-12.58 7.9a3 3 0 0 0-1.42 2.57v7.37c0 1.47-.8 2.82-2.09 3.54l-8.82 4.82c-1.98 1.08-4.67-.32-4.67-2.56V22Z"
      fill="url(#favicon-gradient-a)"
      opacity="0.92"
    />
    <path
      d="M29.5 21h12.8c1.57 0 2.85 1.27 2.85 2.85v4.7a2.85 2.85 0 0 1-1.32 2.41l-7.1 4.5a2.85 2.85 0 0 0-1.32 2.41v4.94a2.85 2.85 0 0 1-1.43 2.47l-6.45 3.67c-1.89 1.07-4.28-.28-4.28-2.47V23.85A2.85 2.85 0 0 1 29.5 21Z"
      fill="url(#favicon-gradient-c)"
      opacity="0.9"
    />
    <circle cx="45.5" cy="24.5" r="4.5" fill="#0affde" opacity="0.85" />
    <circle cx="27.5" cy="45.5" r="3.5" fill="#3cc9ff" opacity="0.85" />
    <path
      d="M42 41c4.97 0 9 4.03 9 9 0 .24-.01.48-.03.71L51 51.5c-.52 2.86-3.03 4.95-5.93 4.95h-7.22c-1.66 0-3-1.34-3-3v-5.45C37.24 43.88 39.41 41 42 41Z"
      fill="#0d1b42"
      opacity="0.65"
    />
  </g>
</svg>
